ffmpeg started on 2025-05-26 at 18:39:40
Report written to "D:\Convert\FFMetrics\reports\psnr_report-6.txt"
Log level: 32
Command line:
ffmpeg -hide_banner -nostdin -i "G:\\\xc0\xed\xe8\xec\xe5\\\xce\xed\xe3\xee\xe8\xed\xe3\xe8\\!_34_\xc2\xe5\xf1\xed\xe0_2024\\DreamCast\\\xc7\xe0\xe1\xe2\xe5\xed\xe8\xe5 \xe1\xfd\xf2\xf2\xe5\xf0\xe8\\[DC] Boukyaku Battery - 05_Telegram_HEVC.mkv" -i "G:\\\xc0\xed\xe8\xec\xe5\\\xce\xed\xe3\xee\xe8\xed\xe3\xe8\\!_34_\xc2\xe5\xf1\xed\xe0_2024\\DreamCast\\\xc7\xe0\xe1\xe2\xe5\xed\xe8\xe5 \xe1\xfd\xf2\xf2\xe5\xf0\xe8\\[DC] Boukyaku Battery - 05_Telegram.mp4" -lavfi "[0:v]settb=AVTB,setpts=PTS-STARTPTS,format=pix_fmts=yuv420p10,fps=24000/1001,scale=1920:1080:flags=bicubic[main];[1:v]settb=AVTB,setpts=PTS-STARTPTS,format=pix_fmts=yuv420p,fps=24000/1001,scale=1920:1080:flags=bicubic[ref];[main][ref]psnr=eof_action=endall:stats_file='D\\:/Convert/FFMetrics/logs/psnr_logfile-6.txt'" -f null -
Input #0, matroska,webm, from 'G:\Аниме\Онгоинги\!_34_Весна_2024\DreamCast\Забвение бэттери\[DC] Boukyaku Battery - 05_Telegram_HEVC.mkv':
  Metadata:
    COMPATIBLE_BRANDS: isomiso2avc1mp41
    MAJOR_BRAND     : isom
    MINOR_VERSION   : 512
    ENCODER         : Lavf61.7.100
  Duration: 00:24:01.71, start: -0.021000, bitrate: 1273 kb/s
  Stream #0:0: Video: hevc (Main 10), yuv420p10le(tv, bt709, progressive), 1920x1080 [SAR 1:1 DAR 16:9], 23.98 fps, 23.98 tbr, 1k tbn (default)
      Metadata:
        HANDLER_NAME    : VideoHandler
        VENDOR_ID       : [0][0][0][0]
        ENCODER         : Lavc61.19.100 libx265
        BPS             : 1075909
        DURATION        : 00:24:01.523708333
        NUMBER_OF_FRAMES: 34562
        NUMBER_OF_BYTES : 193868584
        _STATISTICS_WRITING_APP: mkvpropedit v66.0.0 ('Josie') 64-bit
        _STATISTICS_WRITING_DATE_UTC: 2025-05-26 10:52:57
        _STATISTICS_TAGS: BPS DURATION NUMBER_OF_FRAMES NUMBER_OF_BYTES
  Stream #0:1: Audio: aac (LC), 48000 Hz, stereo, fltp (default)
      Metadata:
        HANDLER_NAME    : SoundHandler
        VENDOR_ID       : [0][0][0][0]
        ENCODER         : Lavc61.19.100 aac
        BPS             : 193160
        DURATION        : 00:24:01.706000000
        NUMBER_OF_FRAMES: 67581
        NUMBER_OF_BYTES : 34810005
        _STATISTICS_WRITING_APP: mkvpropedit v66.0.0 ('Josie') 64-bit
        _STATISTICS_WRITING_DATE_UTC: 2025-05-26 10:52:57
        _STATISTICS_TAGS: BPS DURATION NUMBER_OF_FRAMES NUMBER_OF_BYTES
Input #1, mov,mp4,m4a,3gp,3g2,mj2, from 'G:\Аниме\Онгоинги\!_34_Весна_2024\DreamCast\Забвение бэттери\[DC] Boukyaku Battery - 05_Telegram.mp4':
  Metadata:
    major_brand     : isom
    minor_version   : 512
    compatible_brands: isomiso2avc1mp41
    encoder         : Lavf60.16.100
  Duration: 00:24:01.66, start: 0.000000, bitrate: 3897 kb/s
  Stream #1:0[0x1](und): Video: h264 (High) (avc1 / 0x31637661), yuv420p(tv, bt709, progressive), 1920x1080 [SAR 1:1 DAR 16:9], 3749 kb/s, 23.98 fps, 23.98 tbr, 24k tbn (default)
      Metadata:
        handler_name    : VideoHandler
        vendor_id       : [0][0][0][0]
        encoder         : Lavc60.31.102 h264_qsv
  Stream #1:1[0x2](und): Audio: aac (HE-AACv2) (mp4a / 0x6134706D), 48000 Hz, stereo, fltp, 144 kb/s (default)
      Metadata:
        handler_name    : SoundHandler
        vendor_id       : [0][0][0][0]
Stream mapping:
  Stream #0:0 (hevc) -> settb:default
  Stream #1:0 (h264) -> settb:default
  psnr:default -> Stream #0:0 (wrapped_avframe)
  Stream #0:1 -> #0:1 (aac (native) -> pcm_s16le (native))
Output #0, null, to 'pipe:':
  Metadata:
    COMPATIBLE_BRANDS: isomiso2avc1mp41
    MAJOR_BRAND     : isom
    MINOR_VERSION   : 512
    encoder         : Lavf61.7.100
  Stream #0:0: Video: wrapped_avframe, yuv420p10le(tv, bt709, progressive), 1920x1080 [SAR 1:1 DAR 16:9], q=2-31, 200 kb/s, 23.98 fps, 23.98 tbn
      Metadata:
        encoder         : Lavc61.19.100 wrapped_avframe
  Stream #0:1: Audio: pcm_s16le, 48000 Hz, stereo, s16, 1536 kb/s (default)
      Metadata:
        HANDLER_NAME    : SoundHandler
        VENDOR_ID       : [0][0][0][0]
        _STATISTICS_TAGS: BPS DURATION NUMBER_OF_FRAMES NUMBER_OF_BYTES
        BPS             : 193160
        DURATION        : 00:24:01.706000000
        NUMBER_OF_FRAMES: 67581
        NUMBER_OF_BYTES : 34810005
        _STATISTICS_WRITING_APP: mkvpropedit v66.0.0 ('Josie') 64-bit
        _STATISTICS_WRITING_DATE_UTC: 2025-05-26 10:52:57
        encoder         : Lavc61.19.100 pcm_s16le
frame=  184 fps=0.0 q=-0.0 size=N/A time=00:00:07.67 bitrate=N/A speed=14.7x    frame=  424 fps=410 q=-0.0 size=N/A time=00:00:17.68 bitrate=N/A speed=17.1x    frame=  690 fps=443 q=-0.0 size=N/A time=00:00:28.77 bitrate=N/A speed=18.5x    frame=  966 fps=466 q=-0.0 size=N/A time=00:00:40.29 bitrate=N/A speed=19.4x    frame= 1158 fps=449 q=-0.0 size=N/A time=00:00:48.29 bitrate=N/A speed=18.7x    frame= 1417 fps=458 q=-0.0 size=N/A time=00:00:59.10 bitrate=N/A speed=19.1x    frame= 1667 fps=461 q=-0.0 size=N/A time=00:01:09.52 bitrate=N/A speed=19.2x    frame= 1899 fps=459 q=-0.0 size=N/A time=00:01:19.20 bitrate=N/A speed=19.1x    frame= 2094 fps=451 q=-0.0 size=N/A time=00:01:27.33 bitrate=N/A speed=18.8x    frame= 2301 fps=445 q=-0.0 size=N/A time=00:01:35.97 bitrate=N/A speed=18.6x    frame= 2508 fps=442 q=-0.0 size=N/A time=00:01:44.60 bitrate=N/A speed=18.4x    frame= 2690 fps=434 q=-0.0 size=N/A time=00:01:52.19 bitrate=N/A speed=18.1x    frame= 2884 fps=429 q=-0.0 size=N/A time=00:02:00.28 bitrate=N/A speed=17.9x    frame= 3093 fps=427 q=-0.0 size=N/A time=00:02:09.00 bitrate=N/A speed=17.8x    frame= 3281 fps=423 q=-0.0 size=N/A time=00:02:16.84 bitrate=N/A speed=17.7x    frame= 3508 fps=424 q=-0.0 size=N/A time=00:02:26.31 bitrate=N/A speed=17.7x    frame= 3736 fps=425 q=-0.0 size=N/A time=00:02:35.82 bitrate=N/A speed=17.7x    frame= 3953 fps=425 q=-0.0 size=N/A time=00:02:44.87 bitrate=N/A speed=17.7x    frame= 4128 fps=421 q=-0.0 size=N/A time=00:02:52.17 bitrate=N/A speed=17.5x    frame= 4405 fps=426 q=-0.0 size=N/A time=00:03:03.72 bitrate=N/A speed=17.8x    frame= 4676 fps=431 q=-0.0 size=N/A time=00:03:15.02 bitrate=N/A speed=  18x    frame= 4952 fps=436 q=-0.0 size=N/A time=00:03:26.53 bitrate=N/A speed=18.2x    frame= 5233 fps=440 q=-0.0 size=N/A time=00:03:38.25 bitrate=N/A speed=18.4x    frame= 5509 fps=444 q=-0.0 size=N/A time=00:03:49.81 bitrate=N/A speed=18.5x    frame= 5780 fps=447 q=-0.0 size=N/A time=00:04:01.07 bitrate=N/A speed=18.7x    frame= 6050 fps=450 q=-0.0 size=N/A time=00:04:12.33 bitrate=N/A speed=18.8x    frame= 6297 fps=451 q=-0.0 size=N/A time=00:04:22.63 bitrate=N/A speed=18.8x    frame= 6548 fps=453 q=-0.0 size=N/A time=00:04:33.10 bitrate=N/A speed=18.9x    frame= 6811 fps=454 q=-0.0 size=N/A time=00:04:44.07 bitrate=N/A speed=  19x    frame= 7086 fps=457 q=-0.0 size=N/A time=00:04:55.54 bitrate=N/A speed=19.1x    frame= 7288 fps=454 q=-0.0 size=N/A time=00:05:03.97 bitrate=N/A speed=  19x    frame= 7519 fps=454 q=-0.0 size=N/A time=00:05:13.60 bitrate=N/A speed=18.9x    frame= 7713 fps=452 q=-0.0 size=N/A time=00:05:21.69 bitrate=N/A speed=18.8x    frame= 7981 fps=454 q=-0.0 size=N/A time=00:05:32.87 bitrate=N/A speed=18.9x    frame= 8192 fps=453 q=-0.0 size=N/A time=00:05:41.67 bitrate=N/A speed=18.9x    frame= 8472 fps=455 q=-0.0 size=N/A time=00:05:53.35 bitrate=N/A speed=  19x    frame= 8744 fps=457 q=-0.0 size=N/A time=00:06:04.69 bitrate=N/A speed=19.1x    frame= 9002 fps=458 q=-0.0 size=N/A time=00:06:15.45 bitrate=N/A speed=19.1x    frame= 9241 fps=459 q=-0.0 size=N/A time=00:06:25.42 bitrate=N/A speed=19.1x    frame= 9473 fps=458 q=-0.0 size=N/A time=00:06:35.10 bitrate=N/A speed=19.1x    frame= 9699 fps=457 q=-0.0 size=N/A time=00:06:44.52 bitrate=N/A speed=19.1x    frame= 9945 fps=458 q=-0.0 size=N/A time=00:06:54.78 bitrate=N/A speed=19.1x    frame=10202 fps=459 q=-0.0 size=N/A time=00:07:05.50 bitrate=N/A speed=19.1x    frame=10456 fps=460 q=-0.0 size=N/A time=00:07:16.10 bitrate=N/A speed=19.2x    frame=10727 fps=461 q=-0.0 size=N/A time=00:07:27.40 bitrate=N/A speed=19.2x    frame=10984 fps=462 q=-0.0 size=N/A time=00:07:38.12 bitrate=N/A speed=19.3x    frame=11248 fps=463 q=-0.0 size=N/A time=00:07:49.13 bitrate=N/A speed=19.3x    frame=11517 fps=464 q=-0.0 size=N/A time=00:08:00.35 bitrate=N/A speed=19.4x    frame=11753 fps=464 q=-0.0 size=N/A time=00:08:10.19 bitrate=N/A speed=19.4x    frame=12017 fps=465 q=-0.0 size=N/A time=00:08:21.20 bitrate=N/A speed=19.4x    frame=12281 fps=466 q=-0.0 size=N/A time=00:08:32.22 bitrate=N/A speed=19.4x    frame=12540 fps=467 q=-0.0 size=N/A time=00:08:43.02 bitrate=N/A speed=19.5x    frame=12777 fps=467 q=-0.0 size=N/A time=00:08:52.90 bitrate=N/A speed=19.5x    frame=13032 fps=467 q=-0.0 size=N/A time=00:09:03.54 bitrate=N/A speed=19.5x    frame=13291 fps=468 q=-0.0 size=N/A time=00:09:14.34 bitrate=N/A speed=19.5x    frame=13554 fps=468 q=-0.0 size=N/A time=00:09:25.31 bitrate=N/A speed=19.5x    frame=13803 fps=469 q=-0.0 size=N/A time=00:09:35.70 bitrate=N/A speed=19.6x    frame=14046 fps=469 q=-0.0 size=N/A time=00:09:45.83 bitrate=N/A speed=19.6x    frame=14303 fps=469 q=-0.0 size=N/A time=00:09:56.55 bitrate=N/A speed=19.6x    frame=14535 fps=469 q=-0.0 size=N/A time=00:10:06.23 bitrate=N/A speed=19.6x    frame=14750 fps=468 q=-0.0 size=N/A time=00:10:15.19 bitrate=N/A speed=19.5x    frame=14962 fps=467 q=-0.0 size=N/A time=00:10:24.04 bitrate=N/A speed=19.5x    frame=15205 fps=467 q=-0.0 size=N/A time=00:10:34.17 bitrate=N/A speed=19.5x    frame=15451 fps=468 q=-0.0 size=N/A time=00:10:44.43 bitrate=N/A speed=19.5x    frame=15706 fps=468 q=-0.0 size=N/A time=00:10:55.07 bitrate=N/A speed=19.5x    frame=15966 fps=468 q=-0.0 size=N/A time=00:11:05.91 bitrate=N/A speed=19.5x    frame=16207 fps=469 q=-0.0 size=N/A time=00:11:15.96 bitrate=N/A speed=19.5x    frame=16472 fps=469 q=-0.0 size=N/A time=00:11:27.01 bitrate=N/A speed=19.6x    frame=16755 fps=470 q=-0.0 size=N/A time=00:11:38.82 bitrate=N/A speed=19.6x    frame=17008 fps=470 q=-0.0 size=N/A time=00:11:49.37 bitrate=N/A speed=19.6x    frame=17293 fps=471 q=-0.0 size=N/A time=00:12:01.26 bitrate=N/A speed=19.7x    frame=17522 fps=471 q=-0.0 size=N/A time=00:12:10.81 bitrate=N/A speed=19.6x    frame=17692 fps=469 q=-0.0 size=N/A time=00:12:17.90 bitrate=N/A speed=19.6x    frame=17904 fps=468 q=-0.0 size=N/A time=00:12:26.74 bitrate=N/A speed=19.5x    frame=18178 fps=469 q=-0.0 size=N/A time=00:12:38.17 bitrate=N/A speed=19.6x    frame=18444 fps=470 q=-0.0 size=N/A time=00:12:49.26 bitrate=N/A speed=19.6x    frame=18722 fps=471 q=-0.0 size=N/A time=00:13:00.86 bitrate=N/A speed=19.6x    frame=19010 fps=472 q=-0.0 size=N/A time=00:13:12.87 bitrate=N/A speed=19.7x    frame=19269 fps=472 q=-0.0 size=N/A time=00:13:23.67 bitrate=N/A speed=19.7x    frame=19501 fps=472 q=-0.0 size=N/A time=00:13:33.35 bitrate=N/A speed=19.7x    frame=19756 fps=472 q=-0.0 size=N/A time=00:13:43.98 bitrate=N/A speed=19.7x    frame=20027 fps=473 q=-0.0 size=N/A time=00:13:55.29 bitrate=N/A speed=19.7x    frame=20282 fps=473 q=-0.0 size=N/A time=00:14:05.92 bitrate=N/A speed=19.7x    frame=20510 fps=473 q=-0.0 size=N/A time=00:14:15.43 bitrate=N/A speed=19.7x    frame=20776 fps=473 q=-0.0 size=N/A time=00:14:26.53 bitrate=N/A speed=19.7x    frame=21009 fps=473 q=-0.0 size=N/A time=00:14:36.25 bitrate=N/A speed=19.7x    frame=21245 fps=473 q=-0.0 size=N/A time=00:14:46.09 bitrate=N/A speed=19.7x    frame=21492 fps=473 q=-0.0 size=N/A time=00:14:56.39 bitrate=N/A speed=19.7x    frame=21741 fps=473 q=-0.0 size=N/A time=00:15:06.78 bitrate=N/A speed=19.7x    frame=21973 fps=473 q=-0.0 size=N/A time=00:15:16.45 bitrate=N/A speed=19.7x    frame=22202 fps=472 q=-0.0 size=N/A time=00:15:26.00 bitrate=N/A speed=19.7x    frame=22434 fps=472 q=-0.0 size=N/A time=00:15:35.68 bitrate=N/A speed=19.7x    frame=22700 fps=473 q=-0.0 size=N/A time=00:15:46.77 bitrate=N/A speed=19.7x    frame=22935 fps=473 q=-0.0 size=N/A time=00:15:56.58 bitrate=N/A speed=19.7x    frame=23176 fps=472 q=-0.0 size=N/A time=00:16:06.63 bitrate=N/A speed=19.7x    frame=23404 fps=472 q=-0.0 size=N/A time=00:16:16.14 bitrate=N/A speed=19.7x    frame=23591 fps=471 q=-0.0 size=N/A time=00:16:23.94 bitrate=N/A speed=19.6x    frame=23811 fps=471 q=-0.0 size=N/A time=00:16:33.11 bitrate=N/A speed=19.6x    frame=24054 fps=471 q=-0.0 size=N/A time=00:16:43.25 bitrate=N/A speed=19.6x    frame=24305 fps=471 q=-0.0 size=N/A time=00:16:53.72 bitrate=N/A speed=19.6x    frame=24547 fps=471 q=-0.0 size=N/A time=00:17:03.81 bitrate=N/A speed=19.6x    frame=24806 fps=471 q=-0.0 size=N/A time=00:17:14.61 bitrate=N/A speed=19.6x    frame=25032 fps=471 q=-0.0 size=N/A time=00:17:24.04 bitrate=N/A speed=19.6x    frame=25265 fps=470 q=-0.0 size=N/A time=00:17:33.76 bitrate=N/A speed=19.6x    frame=25479 fps=470 q=-0.0 size=N/A time=00:17:42.68 bitrate=N/A speed=19.6x    frame=25675 fps=469 q=-0.0 size=N/A time=00:17:50.86 bitrate=N/A speed=19.6x    frame=25909 fps=469 q=-0.0 size=N/A time=00:18:00.62 bitrate=N/A speed=19.6x    frame=26170 fps=469 q=-0.0 size=N/A time=00:18:11.50 bitrate=N/A speed=19.6x    frame=26424 fps=470 q=-0.0 size=N/A time=00:18:22.10 bitrate=N/A speed=19.6x    frame=26693 fps=470 q=-0.0 size=N/A time=00:18:33.32 bitrate=N/A speed=19.6x    frame=26904 fps=470 q=-0.0 size=N/A time=00:18:42.12 bitrate=N/A speed=19.6x    frame=27138 fps=469 q=-0.0 size=N/A time=00:18:51.88 bitrate=N/A speed=19.6x    frame=27390 fps=470 q=-0.0 size=N/A time=00:19:02.43 bitrate=N/A speed=19.6x    frame=27659 fps=470 q=-0.0 size=N/A time=00:19:13.61 bitrate=N/A speed=19.6x    frame=27892 fps=470 q=-0.0 size=N/A time=00:19:23.32 bitrate=N/A speed=19.6x    frame=28144 fps=470 q=-0.0 size=N/A time=00:19:33.83 bitrate=N/A speed=19.6x    frame=28419 fps=470 q=-0.0 size=N/A time=00:19:45.30 bitrate=N/A speed=19.6x    frame=28677 fps=471 q=-0.0 size=N/A time=00:19:56.06 bitrate=N/A speed=19.6x    frame=28966 fps=471 q=-0.0 size=N/A time=00:20:08.12 bitrate=N/A speed=19.7x    frame=29228 fps=472 q=-0.0 size=N/A time=00:20:19.05 bitrate=N/A speed=19.7x    frame=29453 fps=472 q=-0.0 size=N/A time=00:20:28.43 bitrate=N/A speed=19.7x    frame=29670 fps=471 q=-0.0 size=N/A time=00:20:37.48 bitrate=N/A speed=19.7x    frame=29884 fps=471 q=-0.0 size=N/A time=00:20:46.41 bitrate=N/A speed=19.6x    frame=30100 fps=470 q=-0.0 size=N/A time=00:20:55.42 bitrate=N/A speed=19.6x    frame=30351 fps=470 q=-0.0 size=N/A time=00:21:05.88 bitrate=N/A speed=19.6x    frame=30581 fps=470 q=-0.0 size=N/A time=00:21:15.48 bitrate=N/A speed=19.6x    frame=30802 fps=470 q=-0.0 size=N/A time=00:21:24.70 bitrate=N/A speed=19.6x    frame=31041 fps=470 q=-0.0 size=N/A time=00:21:34.66 bitrate=N/A speed=19.6x    frame=31291 fps=470 q=-0.0 size=N/A time=00:21:45.09 bitrate=N/A speed=19.6x    frame=31552 fps=470 q=-0.0 size=N/A time=00:21:55.98 bitrate=N/A speed=19.6x    frame=31808 fps=470 q=-0.0 size=N/A time=00:22:06.65 bitrate=N/A speed=19.6x    frame=32053 fps=470 q=-0.0 size=N/A time=00:22:16.87 bitrate=N/A speed=19.6x    frame=32267 fps=470 q=-0.0 size=N/A time=00:22:25.80 bitrate=N/A speed=19.6x    frame=32485 fps=470 q=-0.0 size=N/A time=00:22:34.89 bitrate=N/A speed=19.6x    frame=32708 fps=469 q=-0.0 size=N/A time=00:22:44.19 bitrate=N/A speed=19.6x    frame=32871 fps=468 q=-0.0 size=N/A time=00:22:50.99 bitrate=N/A speed=19.5x    frame=33032 fps=467 q=-0.0 size=N/A time=00:22:57.70 bitrate=N/A speed=19.5x    frame=33239 fps=467 q=-0.0 size=N/A time=00:23:06.34 bitrate=N/A speed=19.5x    frame=33432 fps=466 q=-0.0 size=N/A time=00:23:14.39 bitrate=N/A speed=19.4x    frame=33605 fps=465 q=-0.0 size=N/A time=00:23:21.60 bitrate=N/A speed=19.4x    frame=33778 fps=464 q=-0.0 size=N/A time=00:23:28.82 bitrate=N/A speed=19.4x    frame=33930 fps=463 q=-0.0 size=N/A time=00:23:35.16 bitrate=N/A speed=19.3x    frame=34127 fps=462 q=-0.0 size=N/A time=00:23:43.38 bitrate=N/A speed=19.3x    frame=34351 fps=462 q=-0.0 size=N/A time=00:23:52.72 bitrate=N/A speed=19.3x    [Parsed_psnr_10 @ 00000228f5c37140] PSNR y:47.363687 u:49.430685 v:49.021140 average:47.899134 min:38.187737 max:inf
[out#0/null @ 00000228ee0f4e80] video:14851KiB audio:270324KiB subtitle:0KiB other streams:0KiB global headers:0KiB muxing overhead: unknown
frame=34562 fps=462 q=-0.0 Lsize=N/A time=00:24:01.52 bitrate=N/A speed=19.3x    
